<?xml version="1.0" encoding="utf-8"?>
<!-- Generated by IcoMoon.io -->
<!DOCTYPE svg PUBLIC "-//W3C//DTD SVG 1.1//EN" "http://www.w3.org/Graphics/SVG/1.1/DTD/svg11.dtd">
<svg version="1.1" xmlns="http://www.w3.org/2000/svg" xmlns:xlink="http://www.w3.org/1999/xlink">
    <!--   width="512" height="448"  -->
    <path fill="#F57F17" d="M53 192l155.75 166.25-75-166.25h-80.75zM256 385l87.25-193h-174.5zM134.5 160l51-96h-65.5l-72 96h86.5zM303.25 358.25l155.75-166.25h-80.75zM170.75 160h170.5l-51-96h-68.5zM377.5 160h86.5l-72-96h-65.5zM412.75 38.5l96 128q3.5 4.5 3.25 10.375t-4.25 10.125l-240 256q-4.5 5-11.75 5t-11.75-5l-240-256q-4-4.25-4.25-10.125t3.25-10.375l96-128q4.5-6.5 12.75-6.5h288q8.25 0 12.75 6.5z"></path>
</svg>
